<svg xmlns="http://www.w3.org/2000/svg" viewBox="0 0 200 200"><defs><style>.cls-1,.cls-2,.cls-4,.cls-5{fill:none;}.cls-1,.cls-2,.cls-4{stroke:#fff;stroke-width:2.27px;}.cls-1,.cls-4{stroke-linecap:round;}.cls-1{stroke-linejoin:round;}.cls-2,.cls-4{stroke-miterlimit:10;}.cls-3{fill:#fff;}</style></defs><title>pirate hats</title><g id="text"><path class="cls-1" d="M100.84,54.56c-6.93-7-15.89-12-27.09-12.24C52,42.82,38.7,63.67,32.27,75c-3.7,6.54-11.17,21.82-20.41,19.82"/><path class="cls-1" d="M117.24,64.59c-6.89-6.84-15.75-11.7-26.8-12C68.67,53.14,55.42,74,49,85.36c-4.87,8.57-13.6,26-30.92,27-.95.06-4.06,0-5,0"/><path class="cls-1" d="M33.5,147.2c-1.41.37-5.93,1.16-7.27,1.56Z"/><path class="cls-1" d="M173,120.84c1.17-3.5,2.37-7.09,2.39-10.81a33.73,33.73,0,0,1-12.94,2.35"/><path class="cls-1" d="M174.47,122c-12.13-4.31-19.18-18.3-23.37-25.72C144.68,85,131.39,64.1,109.62,63.59,87.85,64.1,74.57,85,68.14,96.32c-5,8.84-14.05,27-30.92,27A34,34,0,0,1,24.71,121q.37,2.62.95,5.28c3.13,14.25,10.41,26.16,19.48,33.63,16.78-4.94,39.36-8,64.2-8h.31c24.92,0,47.55,3.1,64.31,8.09,9.14-7.47,16.48-19.42,19.63-33.75.39-1.77.61-3.62.86-5.37A33.59,33.59,0,0,1,182,123.33a22.38,22.38,0,0,1-7.55-1.3"/><line class="cls-2" x1="119.71" y1="122.04" x2="143.04" y2="114.61"/><line class="cls-2" x1="78.85" y1="135.05" x2="102.34" y2="127.57"/><line class="cls-2" x1="102.7" y1="122.2" x2="78.85" y2="114.61"/><line class="cls-2" x1="143.04" y1="135.05" x2="119.55" y2="127.57"/><path class="cls-1" d="M110.95,90.92c-9,0-16.37,6.11-16.37,13.65,0,4.88,3.07,9.16,7.69,11.57v13.14h17.35V116.14c4.62-2.41,7.69-6.69,7.69-11.57C127.31,97,120,90.92,110.95,90.92Z"/><path class="cls-3" d="M103.11,103.26a5.5,5.5,0,1,1-5.24,5.49,5.37,5.37,0,0,1,5.24-5.49m0-2.27a7.76,7.76,0,1,0,7.5,7.76,7.64,7.64,0,0,0-7.5-7.76Z"/><path class="cls-3" d="M118.33,103.26a5.5,5.5,0,1,1-5.24,5.49,5.37,5.37,0,0,1,5.24-5.49m0-2.27a7.76,7.76,0,1,0,7.5,7.76,7.64,7.64,0,0,0-7.5-7.76Z"/><line class="cls-4" x1="110.95" y1="128.49" x2="110.95" y2="124.7"/><line class="cls-4" x1="116.13" y1="128.49" x2="116.13" y2="124.7"/><line class="cls-4" x1="105.76" y1="128.49" x2="105.76" y2="124.7"/><path class="cls-3" d="M83,109a3.86,3.86,0,0,1,3.77,3.94,4,4,0,0,1-2,3.5,4.06,4.06,0,0,1,.57,2.07,3.86,3.86,0,0,1-3.76,4h0a3.86,3.86,0,0,1-3.77-3.94,4,4,0,0,1,2-3.5,4.06,4.06,0,0,1-.57-2.07A3.86,3.86,0,0,1,83,109h0m0-2.27h0a6.13,6.13,0,0,0-6,6.22,6.35,6.35,0,0,0,.14,1.34,6.3,6.3,0,0,0-1.61,4.23,6,6,0,1,0,12.06,0,6.35,6.35,0,0,0-.14-1.34,6.3,6.3,0,0,0,1.61-4.23,6.13,6.13,0,0,0-6-6.2Z"/><path class="cls-3" d="M81.11,127.36a3.72,3.72,0,0,1,3.15,1.79,4.1,4.1,0,0,1,.13,4.1,3.8,3.8,0,0,1,1.55,1.41,4.06,4.06,0,0,1-1.09,5.46,3.62,3.62,0,0,1-2.06.64A3.72,3.72,0,0,1,79.64,139a4.1,4.1,0,0,1-.13-4.1A3.8,3.8,0,0,1,78,133.47,4.06,4.06,0,0,1,79.05,128a3.62,3.62,0,0,1,2.06-.64m0-2.27a5.88,5.88,0,0,0-3.34,1A6.36,6.36,0,0,0,76,134.67a6.14,6.14,0,0,0,.82,1,6.35,6.35,0,0,0,.86,4.46A6,6,0,0,0,82.8,143a5.88,5.88,0,0,0,3.34-1,6.36,6.36,0,0,0,1.73-8.53,6.14,6.14,0,0,0-.82-1,6.35,6.35,0,0,0-.86-4.46,6,6,0,0,0-5.08-2.85Z"/><path class="cls-3" d="M139.16,109h0a3.86,3.86,0,0,1,3.76,4,4.06,4.06,0,0,1-.57,2.07,4,4,0,0,1,2,3.5,3.86,3.86,0,0,1-3.77,3.94h0a3.86,3.86,0,0,1-3.76-4,4.06,4.06,0,0,1,.57-2.07,4,4,0,0,1-2-3.5,3.86,3.86,0,0,1,3.77-3.94m0-2.27h0a6.13,6.13,0,0,0-6,6.2,6.3,6.3,0,0,0,1.61,4.23,6.35,6.35,0,0,0-.14,1.34,6,6,0,1,0,12.06,0,6.3,6.3,0,0,0-1.61-4.23,6.35,6.35,0,0,0,.14-1.34,6.13,6.13,0,0,0-6-6.22Z"/><path class="cls-3" d="M141.09,127.36a3.62,3.62,0,0,1,2.06.64,4.06,4.06,0,0,1,1.09,5.46,3.8,3.8,0,0,1-1.55,1.41,4.1,4.1,0,0,1-.13,4.1,3.72,3.72,0,0,1-3.15,1.79,3.62,3.62,0,0,1-2.06-.64,4.06,4.06,0,0,1-1.09-5.46,3.8,3.8,0,0,1,1.55-1.41,4.1,4.1,0,0,1,.13-4.1,3.72,3.72,0,0,1,3.15-1.79m0-2.27h0a6,6,0,0,0-5.08,2.85,6.35,6.35,0,0,0-.86,4.46,6.14,6.14,0,0,0-.82,1,6.36,6.36,0,0,0,1.73,8.53,5.88,5.88,0,0,0,3.34,1,6,6,0,0,0,5.08-2.85,6.35,6.35,0,0,0,.86-4.46,6.14,6.14,0,0,0,.82-1,6.36,6.36,0,0,0-1.73-8.53,5.88,5.88,0,0,0-3.34-1Z"/><line class="cls-4" x1="111.19" y1="115.09" x2="108.43" y2="119.86"/><line class="cls-4" x1="111.12" y1="115.09" x2="113.87" y2="119.86"/><path class="cls-1" d="M108.29,11.4,107.83,14l-2.26,12.69a6,6,0,0,1-1.68,3.19L94.1,39.53a4.09,4.09,0,0,1-6.58-1.17L81.68,25.89a6,6,0,0,1-.47-3.57l1.69-9.46"/><path class="cls-1" d="M71.68,42.21c-.15-4.63,12.47-14.08,19.21-6.65"/><path class="cls-1" d="M174.5,31.27l14.12,20.2L166.07,68a6,6,0,0,1-3.42,1.15l-13.76.2A4.09,4.09,0,0,1,145,63.9l4.41-13A6,6,0,0,1,151.5,48Z"/><path class="cls-1" d="M130.11,70.87c-.15-4.63,12.47-14.08,19.21-6.65"/><path class="cls-1" d="M146.33,23.91l-9.39,19.92a6,6,0,0,1-2.47,2.6L122.4,53.08a4.09,4.09,0,0,1-6-2.92l-2.23-13.58a6,6,0,0,1,.52-3.57l8.48-18.88"/><path class="cls-1" d="M101.18,54.58c-.15-4.63,12.47-13.62,19.21-6.2"/><path class="cls-1" d="M166.57,159.34a89,89,0,1,1-2.88-121.83"/><path class="cls-1" d="M179,58.48A89.34,89.34,0,0,1,186.24,123"/><rect class="cls-5" width="200" height="200"/></g></svg>