<svg id="Layer_1" data-name="Layer 1" xmlns="http://www.w3.org/2000/svg" viewBox="0 0 200 200"><defs><style>.cls-1,.cls-2,.cls-3,.cls-5{fill:none;stroke:#fff;stroke-width:2.25px;}.cls-1,.cls-2,.cls-3{stroke-linecap:round;}.cls-1{stroke-linejoin:round;}.cls-2,.cls-5{stroke-miterlimit:10;}.cls-3{stroke-linejoin:bevel;}.cls-4{fill:#fff;}</style></defs><title>Artboard 1</title><g id="text"><path class="cls-1" d="M139.13,20.61A88.48,88.48,0,1,1,21.23,139.46"/><path class="cls-1" d="M12.24,94.93a88.47,88.47,0,0,1,88.31-83.16,89.42,89.42,0,0,1,10,.56"/><path class="cls-1" d="M15,122.69a88.06,88.06,0,0,1-2.14-11"/><path class="cls-2" d="M159.82,145.16l2.89-20.56a4.74,4.74,0,0,1,2.79-3.68l23.09-10.11"/><path class="cls-1" d="M80.16,186.17,86.47,159A4.29,4.29,0,0,1,90,155.76l75.73-11.49"/><path class="cls-2" d="M98.68,128.35c9.35,8.77,19.5,16.09,31.08,20.89"/><line class="cls-2" x1="138.38" y1="62.03" x2="144.57" y2="146.15"/><line class="cls-2" x1="96.38" y1="154.44" x2="103.12" y2="62.12"/><path class="cls-1" d="M147.72,48.53H91.3a1,1,0,0,0-.91,1.34l4.07,10a1,1,0,0,0,.91.61h48.28a1,1,0,0,0,.91-.61l4.07-10a1,1,0,0,0-.91-1.34Z"/><path class="cls-2" d="M102.81,47.08l.11-29A1.12,1.12,0,0,1,104,17h33a1.12,1.12,0,0,1,1.12,1.12V46.9"/><path class="cls-2" d="M110.58,16.47V12.4a9.24,9.24,0,0,1,9.18-9.29h1.42a9.24,9.24,0,0,1,9.18,9.29v4.07"/><path class="cls-2" d="M103.67,63.23C114.6,74,125.83,79.61,140,84.59"/><path class="cls-2" d="M100.74,94.93c12.21,11.94,25.7,20.55,41.44,25.69"/><line class="cls-2" x1="98.68" y1="27.97" x2="142.26" y2="27.97"/><path class="cls-3" d="M21.15,128.23a5.86,5.86,0,0,1,7.2-4.09,7.32,7.32,0,0,1,5.11,9,9.45,9.45,0,0,1-6.83,6.7C14.93,141.47,11,128.42,16.07,121.4a14.3,14.3,0,0,1,15.73-5.92c6.67,1.84,11.17,6,12.5,12.35"/><path class="cls-3" d="M63.26,120a21.17,21.17,0,0,0-15.11-16,16.94,16.94,0,0,0-20.58,11"/><path class="cls-3" d="M44.11,128.81A19,19,0,0,0,45.2,153a15.2,15.2,0,0,0,21.47,1.05,12.16,12.16,0,0,0,.84-17.18h0a9.73,9.73,0,0,0-13.74-.67"/><path class="cls-3" d="M59.82,178.64A33.75,33.75,0,0,0,78,169.78a29.69,29.69,0,0,0,2.06-41.94h0a23.75,23.75,0,0,0-33.55-1.64h0a19.11,19.11,0,0,0-2.35,2.55"/><path class="cls-3" d="M35.52,159.26c2.4-1.23,7.53-4.82,8.17-7.4"/><path class="cls-4" d="M71.81,104.22a2.17,2.17,0,1,1-2.17,2.17h0a2.17,2.17,0,0,1,2.17-2.17m0-2.25a4.42,4.42,0,1,0,4.42,4.42h0A4.43,4.43,0,0,0,71.81,102Z"/><circle class="cls-5" cx="34.61" cy="83.83" r="5.58" transform="translate(-49.14 49.03) rotate(-45)"/><line class="cls-2" x1="90.34" y1="40.4" x2="24.18" y2="55.55"/><line class="cls-2" x1="90.34" y1="32.44" x2="51.24" y2="26.78"/><line class="cls-2" x1="150.6" y1="40.4" x2="169.42" y2="44.71"/><line class="cls-2" x1="150.06" y1="32.44" x2="155.48" y2="30.97"/><circle class="cls-3" cx="16.94" cy="103.37" r="8.93"/></g></svg>