<?xml version="1.0" encoding="utf-8"?>
<!-- Generator: Adobe Illustrator 20.0.0, SVG Export Plug-In . SVG Version: 6.00 Build 0)  -->
<svg version="1.1" id="Layer_1" xmlns="http://www.w3.org/2000/svg" xmlns:xlink="http://www.w3.org/1999/xlink" x="0px" y="0px"
	 viewBox="0 0 200 200" style="enable-background:new 0 0 200 200;" xml:space="preserve">
<style type="text/css">
	.st0{fill:none;stroke:#FFFFFF;stroke-width:2.24;stroke-linecap:round;stroke-linejoin:round;}
	.st1{fill:#231F20;}
	.st2{fill:#FFFFFF;}
	.st3{fill:none;stroke:#FFFFFF;stroke-width:2.24;stroke-miterlimit:10;}
	.st4{fill:none;stroke:#FFFFFF;stroke-width:2.24;stroke-linecap:round;stroke-miterlimit:10;}
</style>
<title>Artboard 2</title>
<path class="st0" d="M152.5,29.57C113.55,0.46,58.37,8.44,29.26,47.39C17.89,62.61,11.74,81.1,11.74,100.1
	c0,3.98,0.27,7.96,0.8,11.9"/>
<circle class="st1" cx="30.4" cy="80.04" r="2.32"/>
<line class="st0" x1="59.57" y1="41.62" x2="59.68" y2="47.54"/>
<line class="st0" x1="62.89" y1="52.08" x2="59.68" y2="47.54"/>
<line class="st0" x1="56.16" y1="52.29" x2="59.68" y2="47.54"/>
<line class="st0" x1="54.26" y1="45.77" x2="59.68" y2="47.54"/>
<line class="st0" x1="167.03" y1="81.58" x2="164.09" y2="82.65"/>
<line class="st0" x1="164.02" y1="79.25" x2="164.09" y2="82.65"/>
<line class="st0" x1="165.93" y1="85.26" x2="164.09" y2="82.65"/>
<line class="st0" x1="162.06" y1="85.38" x2="164.09" y2="82.65"/>
<line class="st0" x1="160.97" y1="81.63" x2="164.09" y2="82.65"/>
<circle class="st2" cx="102.23" cy="27.46" r="2.08"/>
<circle class="st2" cx="46.47" cy="141.11" r="2.08"/>
<circle class="st2" cx="86.51" cy="42.94" r="2.08"/>
<circle class="st2" cx="173.75" cy="97.66" r="2.08"/>
<circle class="st2" cx="30.4" cy="80.04" r="2.32"/>
<polyline class="st3" points="10.85,131.09 37.04,117.71 30.2,104.35 4.01,117.73 "/>
<path class="st3" d="M120.35,86l59.77-30.53l-15.73-30.68L70.74,72.63c-0.92,0.47-1.28,1.6-0.81,2.52c0,0,0,0,0,0l14,27.39
	c0.47,0.92,1.6,1.28,2.52,0.81c0,0,0,0,0,0l5.55-2.81"/>
<line class="st0" x1="3.03" y1="115.49" x2="11.84" y2="133.52"/>
<path class="st0" d="M185.91,59.07L185.91,59.07c-1.73,0.88-3.84,0.2-4.72-1.53l-17.99-35.22c-0.88-1.73-0.2-3.84,1.53-4.72l0,0
	c1.73-0.88,3.84-0.2,4.72,1.53l17.99,35.22C188.32,56.08,187.63,58.19,185.91,59.07z"/>
<path class="st3" d="M28.87,98.85l41.98-21.45l0,0l11.83,23.15l0,0L40.7,122.01c-0.63,0.3-1.39,0.05-1.73-0.57L28.33,100.6
	C28.01,99.97,28.25,99.19,28.87,98.85z"/>
<line class="st4" x1="113.65" y1="61.9" x2="111.69" y2="62.93"/>
<line class="st4" x1="130.36" y1="53.21" x2="118.24" y2="59.49"/>
<line class="st4" x1="46.21" y1="99.8" x2="41.1" y2="102.45"/>
<line class="st4" x1="73.33" y1="85.77" x2="50.53" y2="97.57"/>
<line class="st4" x1="16.05" y1="118.26" x2="14.33" y2="119.11"/>
<line class="st4" x1="32.09" y1="110.19" x2="20.52" y2="115.94"/>
<line class="st4" x1="167.81" y1="33.66" x2="135.6" y2="50.32"/>
<line class="st0" x1="64.81" y1="45.69" x2="59.68" y2="47.54"/>
<path class="st0" d="M120.35,86v-1.28c0-8.01-6.5-14.51-14.51-14.51c0,0,0,0,0,0l0,0c-8.01-0.01-14.51,6.49-14.52,14.5
	c0,0,0,0.01,0,0.01v30.41h29V86"/>
<rect x="75.66" y="115.13" class="st0" width="59.74" height="17.25"/>
<circle class="st0" cx="105.83" cy="85.19" r="6.05"/>
<line class="st0" x1="79.27" y1="132.38" x2="57.03" y2="176.65"/>
<line class="st0" x1="65.68" y1="180.13" x2="89.5" y2="133.33"/>
<line class="st0" x1="141.9" y1="177.23" x2="121.04" y2="132.38"/>
<line class="st0" x1="131.39" y1="132.38" x2="149.96" y2="172.52"/>
<line class="st0" x1="100.62" y1="132.38" x2="100.68" y2="188.09"/>
<line class="st0" x1="110.37" y1="132.38" x2="111.3" y2="186.19"/>
<path class="st0" d="M16.63,129.11c16.02,45.93,66.24,70.17,112.16,54.15s70.17-66.24,54.15-112.16c-1.55-4.43-3.45-8.74-5.68-12.87
	"/>
</svg>
