<svg id="Layer_1" data-name="Layer 1" xmlns="http://www.w3.org/2000/svg" viewBox="0 0 200 200"><defs><style>.cls-1,.cls-2,.cls-4,.cls-5{fill:none;stroke:#fff;stroke-width:2.25px;}.cls-1,.cls-4{stroke-linecap:round;}.cls-1,.cls-2{stroke-linejoin:round;}.cls-3{fill:#fff;}.cls-4,.cls-5{stroke-miterlimit:10;}</style></defs><title>Artboard 2</title><path class="cls-1" d="M88.53,187.7A88.41,88.41,0,1,0,99.87,11.6,88.18,88.18,0,0,0,34.3,40.72"/><path class="cls-1" d="M17,69.5A88.52,88.52,0,0,0,69.35,183"/><polyline class="cls-1" points="128.38 115.08 101.83 122.23 102.64 183.12 166.58 158.14"/><polyline class="cls-1" points="172.61 149.67 173.19 101.57 149.01 109.73"/><line class="cls-1" x1="118.63" y1="87.7" x2="121.42" y2="87.7"/><line class="cls-1" x1="93.61" y1="93.43" x2="97.74" y2="92.52"/><polyline class="cls-1" points="73.08 35.01 46.23 41.23 46.95 104.48"/><polyline class="cls-1" points="129.83 78.78 127.92 22.32 94.38 30.09"/><path class="cls-1" d="M45.84,41c-15.76-3.6-28.93,7.79-29,25.54s13.52,35.06,29.27,38.66"/><path class="cls-1" d="M109.29,26.89C103.18,30.64,99,38.88,99,47.76c0,12.27,6.54,24.07,15.8,31.38"/><line class="cls-1" x1="72.66" y1="32.23" x2="33.46" y2="41.25"/><path class="cls-1" d="M94.34,27.27l22.11-5a24.11,24.11,0,0,1,11.49-.06"/><path class="cls-2" d="M87.88,91.25c-.73-2.49-5.06-4.4-10.28-4.4-5.74,0-10.39,2.3-10.39,5.14a3.45,3.45,0,0,0,1.39,2.57"/><path class="cls-1" d="M150.18,87.85c8.62-3.08,15.73-.87,16.26,3.45"/><path class="cls-1" d="M141.28,82.6c4.34-6.64,13.49-3.46,13.45,3.82"/><path class="cls-3" d="M166.49,92.68c4.42,0,8,1.58,8,3.53s-3.59,3.53-8,3.53-8-1.58-8-3.53,3.59-3.53,8-3.53m0-2.25c-5.1,0-10.26,2-10.26,5.78s5.16,5.78,10.26,5.78,10.26-2,10.26-5.78-5.16-5.78-10.26-5.78Z"/><path class="cls-2" d="M124.93,91.19a3.7,3.7,0,0,0-.1,3.38c1.42,2.46,6.6,2.13,11.57-.74s7.85-7.19,6.43-9.65a3.7,3.7,0,0,0-3-1.6"/><path class="cls-2" d="M136.49,129.21c0-2.36,2.15-5.08,4.8-5.92s4.8.52,4.8,2.88a5.94,5.94,0,0,1-2,4.06l1.84,9.6-9.35,2.7,1.84-10.5A2.81,2.81,0,0,1,136.49,129.21Z"/><path class="cls-2" d="M94.25,25.27l0,6.18L73.4,36l-.29-5.89C73.1,27.75,85.89,19.16,94.25,25.27Z"/><path class="cls-2" d="M97.44,92.9c0,2.84,4.65,5.14,10.39,5.14s10.39-2.3,10.39-5.14a2.92,2.92,0,0,0-.57-1.68"/><ellipse class="cls-2" cx="107.26" cy="88.96" rx="10.39" ry="5.14"/><path class="cls-1" d="M62.61,98.85c-5.41.1-10.1,2.36-12.68,7.3"/><path class="cls-2" d="M74.66,103.2c1.41,2.47,6.59,2.16,11.57-.69s7.88-7.15,6.47-9.62-7.49-2-12.47.87"/><path class="cls-2" d="M62.11,105c1.41,2.47,6.59,2.16,11.57-.69s7.88-7.15,6.47-9.62-6.59-2.16-11.57.69-7.88,7.15-6.47,9.62"/><ellipse class="cls-2" cx="118.54" cy="105.8" rx="10.39" ry="5.14"/><path class="cls-2" d="M131.75,96.38c-.68,2.76,3.28,6.11,8.85,7.48s10.64.26,11.32-2.5-3.28-6.11-8.85-7.48a18.61,18.61,0,0,0-5.79-.54"/><path class="cls-2" d="M108.67,103.62c-5.74,0-10.39,2.3-10.39,5.14s4.65,5.14,10.39,5.14c4,0,7.52-1.14,9.25-2.79"/><path class="cls-2" d="M134.18,116.55l17.31-5.11a.44.44,0,0,0,0-.84l-5.88-2a4.49,4.49,0,0,0-2.69,0l-17.13,5.06a.44.44,0,0,0,0,.84l6.06,2A3.9,3.9,0,0,0,134.18,116.55Z"/><ellipse class="cls-2" cx="131.23" cy="83.82" rx="10.39" ry="5.14" transform="translate(-24.33 76.84) rotate(-30)"/><path class="cls-2" d="M124.94,83.52a13.77,13.77,0,0,0-7.21-3.95c-5.61-1.18-10.64.11-11.23,2.89a2.85,2.85,0,0,0,.14,1.58"/><path class="cls-1" d="M86,117.26c1.56-6.22,7.69-6.89,11.22-6.67l.65.06"/><polyline class="cls-1" points="68.46 170.31 46.86 162.81 46.86 105.18 101.83 122.52 102.64 183.12 91.39 179.11"/><path class="cls-1" d="M69.15,174.29c0,2.84,4.65,5.14,10.39,5.14s10.39-2.3,10.39-5.14a2.92,2.92,0,0,0-.57-1.68"/><path class="cls-4" d="M69.15,178c0,2.84,4.65,5.14,10.39,5.14s10.39-2.3,10.39-5.14a2.92,2.92,0,0,0-.57-1.68"/><path class="cls-1" d="M69.3,181.39c0,2.84,4.65,5.14,10.39,5.14s10.39-2.3,10.39-5.14a2.92,2.92,0,0,0-.57-1.68"/><path class="cls-4" d="M69.3,185.07c0,2.84,4.65,5.14,10.39,5.14s10.39-2.3,10.39-5.14a2.92,2.92,0,0,0-.57-1.68"/><ellipse class="cls-5" cx="78.96" cy="170.35" rx="10.39" ry="5.14"/><path class="cls-5" d="M46.05,141.62a20.8,20.8,0,0,0-2.09-.1c-5.74,0-10.39,2.3-10.39,5.14S38.22,151.8,44,151.8c.69,0,1.37,0,2-.1"/><line class="cls-1" x1="46.24" y1="121.61" x2="16.96" y2="130.52"/><line class="cls-1" x1="185.89" y1="79.14" x2="160.52" y2="86.85"/></svg>