<?xml version="1.0" encoding="utf-8"?>
<!-- Generator: Adobe Illustrator 20.0.0, SVG Export Plug-In . SVG Version: 6.00 Build 0)  -->
<svg version="1.1" id="Layer_1" xmlns="http://www.w3.org/2000/svg" xmlns:xlink="http://www.w3.org/1999/xlink" x="0px" y="0px"
	 viewBox="0 0 200 200" style="enable-background:new 0 0 200 200;" xml:space="preserve">
<style type="text/css">
	.st0{fill:none;stroke:#FFFFFF;stroke-width:2.24;stroke-linecap:round;stroke-linejoin:round;}
	.st1{fill:none;stroke:#FFFFFF;stroke-width:2.24;stroke-miterlimit:10;}
</style>
<title>oars</title>
<g id="text">
	<path class="st0" d="M123.7,15.5c6.02,4.26,9.59,11.18,9.58,18.56c0,5.75-3.08,13.17-7.52,16.31"/>
	<path class="st0" d="M118.82,54.53c-2.32,0.9-4.79,1.33-7.28,1.27c-12.01-0.04-21.7-9.81-21.66-21.82
		c0.04-10.99,8.28-20.22,19.19-21.51"/>
	<path class="st0" d="M138.62,21.08c6.23,12.96,2.38,28.51-9.16,37.08"/>
	<path class="st0" d="M122.1,62.18c-15.49,5.88-32.81-1.91-38.69-17.4c-4.28-11.27-1.4-24,7.31-32.33"/>
	<path class="st0" d="M54.05,152c0,0-24.86-41-34.33-56.63c-0.36-0.6-0.85-1.11-1.42-1.51l0,0c-0.79-0.56-1.72-0.88-2.69-0.94
		c-1.23-0.08-2.45-0.33-3.61-0.75"/>
	<path class="st0" d="M58.68,22.13c6.59,9.7,4.29,22.87-5.18,29.78"/>
	<path class="st0" d="M45.83,55.47c-6.75,1.61-13.87-0.07-19.18-4.54"/>
	<path class="st0" d="M66.58,19.12c8.12,13.78,4,31.5-9.36,40.29"/>
	<path class="st0" d="M50.28,62.8c-8.87,3.39-19.77,1.15-27.44-4.32"/>
	<path class="st1" d="M38.3,37.85c8.53,17.58,20.3,42.68,23.29,50.55c1.14,3.14,1.84,6.43,2.07,9.76c0.05,2.48-0.56,4.93-1.79,7.08
		c-0.33,0.77-0.52,1.59-0.56,2.42c-0.02,0.72,0.12,1.43,0.39,2.09c5.75,12.87,20.3,44.31,20.3,44.31"/>
	<path class="st1" d="M123.86,154.34c0,0-25.76-41.34-35.99-58.27c-0.36-0.6-0.85-1.11-1.42-1.51l0,0
		c-0.79-0.56-1.72-0.88-2.69-0.94c-2.16-0.16-4.24-0.91-6-2.17c-2.93-2.07-5.52-4.59-7.69-7.45c-5-7-17.7-33.15-26.31-50.8"/>
	<path class="st0" d="M23.6,144.91l2.83-4.13c1.19,1.74,2.37,3.49,3.57,5.21c5.83,8.51,17.45,10.68,25.95,4.85
		c1.53-1.05,2.89-2.31,4.05-3.76c1.58-2,2.94-4.2,4.38-6.3c1.19,1.74,2.37,3.49,3.57,5.21c5.83,8.51,17.45,10.68,25.95,4.85
		c1.53-1.05,2.89-2.31,4.05-3.76c1.58-2,2.94-4.2,4.38-6.3c1.19,1.74,2.37,3.49,3.57,5.21c5.83,8.51,17.45,10.68,25.95,4.85
		c1.53-1.05,2.89-2.31,4.05-3.76c1.58-2,2.94-4.2,4.38-6.3c2.23,3.25,4.28,6.85,7.4,9.33c1.5,1.18,3.17,2.13,4.95,2.8"/>
	<path class="st0" d="M166.14,158.3c-17.37,20.53-44.3,31.43-70.91,30.15c-5.85-0.22-11.65-1.08-17.31-2.56
		c-4.92-1.37-9.75-3.09-14.43-5.13c-2.89-1.28-5.77-2.89-8.66-4.49c-3.54-2.16-6.97-4.52-10.26-7.05c-1.32-1.25-2.71-2.43-4.17-3.53
		c-14.59-13.19-24.31-30.93-27.57-50.33c-0.64-3.53-1-6.73-1.28-10.26c-0.27-5.46-0.05-10.93,0.64-16.35
		c0.96-6.55,2.57-13,4.81-19.23c2.21-5.66,4.89-11.13,8-16.35c2.56-3.53,4.81-6.73,7.37-9.94c6.26-7.28,13.62-13.55,21.8-18.59
		c24.37-14.68,54.33-16.71,80.46-5.45c4.19,1.88,8.26,4.02,12.18,6.41c3.46,2.28,6.78,4.75,9.97,7.4
		c8.33,7.37,15.39,15.39,20.52,25.32c1.92,3.53,3.21,6.73,4.81,10.26c0.64,1.92,1.28,3.53,1.92,5.45
		c5.45,18.27,5.45,37.65-1.16,55.57"/>
	<path class="st1" d="M100.36,15.93c10.39,21.36,25.22,52.84,28.26,60.84c1.14,3.14,1.84,6.43,2.07,9.76
		c0.05,2.48-0.56,4.93-1.79,7.08c-0.33,0.77-0.52,1.59-0.56,2.42c-0.02,0.72,0.12,1.43,0.39,2.09c8.92,20,17.75,39.49,26.18,58.48
		c1.09,2.38,3.78,3.58,6.28,2.8c9.34-2.75,18.06-7.3,25.65-13.4c2.06-1.61,2.61-4.5,1.28-6.75c-10.8-17.75-21.9-36.08-33.22-54.8
		c-0.36-0.6-0.85-1.11-1.42-1.51l0,0c-0.79-0.56-1.72-0.88-2.69-0.94c-2.16-0.16-4.24-0.91-6-2.17c-2.92-2.08-5.51-4.6-7.67-7.47
		c-5.07-7.11-20.47-38.21-30.65-58.94"/>
	<path class="st1" d="M164.94,159.17c8.01-2.99,15.45-7.33,22-12.82c2.14-1.78,2.69-4.84,1.32-7.26c-1.83-3.14-3.5-6.31-5.35-9.48"
		/>
</g>
</svg>
