<svg xmlns="http://www.w3.org/2000/svg" viewBox="0 0 200 200"><defs><style>.cls-1,.cls-2,.cls-3,.cls-4,.cls-5{fill:none;}.cls-2,.cls-3,.cls-4,.cls-5{stroke:#fff;stroke-width:2.26px;}.cls-2,.cls-5{stroke-linecap:round;}.cls-2,.cls-4{stroke-linejoin:round;}.cls-3,.cls-5{stroke-miterlimit:10;}.cls-4{stroke-linecap:square;}</style></defs><title>drafting-comp</title><g id="text"><rect class="cls-1" width="200" height="200"/><path class="cls-2" d="M48.55,27.91A88.63,88.63,0,0,1,99.82,11.68c49.06,0,88.83,39.63,88.83,88.52s-39.77,88.52-88.83,88.52S11,149.09,11,100.2A88.24,88.24,0,0,1,44.39,31"/><path class="cls-2" d="M70.41,75l13.16,92.93-11.11,2.66s-33.1-106.17-34-109.71A22.59,22.59,0,1,1,71.25,74.47l-.84.44"/><path class="cls-3" d="M47.28,36.34,39.43,21.92A2.57,2.57,0,0,1,44,19.47L51.8,33.88"/><polyline class="cls-4" points="80.76 169.14 81.67 186.62 75.55 170.39"/><polyline class="cls-2" points="71.12 74.62 143.08 135.46 151.01 127.54 77.43 40.08"/><polyline class="cls-4" points="145.19 133.98 160.46 144.06 149.56 130.03"/><path class="cls-5" d="M79.2,137l4.87,0c28.21,0,54.54,2.76,76.83,7.54"/><path class="cls-5" d="M21.75,141.82a394.34,394.34,0,0,1,40.44-4.25"/><ellipse class="cls-5" cx="59.99" cy="55.28" rx="3.59" ry="3.58"/><path class="cls-5" d="M140.39,114.54c15.18,2,30.25,5.71,45,9.59"/><path class="cls-5" d="M75.44,110.42a316.65,316.65,0,0,1,38.68,1.09"/><path class="cls-5" d="M12.42,116.1q15.94-2.73,32.08-4.16,4.59-.41,9.18-.7"/></g></svg>